<?xml version="1.0" encoding="utf-8"?>
<!-- Generator: Adobe Illustrator 24.2.1, SVG Export Plug-In . SVG Version: 6.00 Build 0)  -->
<svg version="1.1" id="Layer_1" xmlns="http://www.w3.org/2000/svg" xmlns:xlink="http://www.w3.org/1999/xlink" x="0px" y="0px"
	 viewBox="0 0 35 35" style="enable-background:new 0 0 35 35;" xml:space="preserve">
<path d="M28,25.64v-0.16c0,0,0.32,0.16,0.52,0.16c0.2,0,0.21-0.08,0.28-0.39c0.07-0.31,0.03-0.62-0.06-0.87
	c-0.08-0.25-0.61-1.37-0.63-1.41C28.08,22.92,28,22.49,28,22.49s1.01-0.4,1.04-0.52c0.03-0.13-0.14-1.27-0.17-1.42
	c-0.03-0.15-0.2-0.49-0.53-1.38c-0.34-0.89-1.78-4.41-1.78-4.41l-0.06,0.01c0,0-0.18-0.41-0.58-0.29c-0.36,0.1-0.31,0.44-0.31,0.44
	s-0.37-0.28-0.49-0.23c-0.13,0.06-0.41,0.1-0.41,0.1s-0.03-0.04-0.17-0.14c-0.14-0.1-0.97-1.13-0.97-1.13s-0.03-0.07,0.03-0.22
	c0.11-0.61-0.38-1.16-0.92-1.2c-0.54-0.04-1.11,0.48-1.2,0.51c-0.08,0.03-0.52,0.27-0.75,0.37c-0.23,0.1-0.75,0.48-0.72,0.55
	c0.03,0.07,0.14,0.25,0.14,0.25l-0.03,0.07c0,0-0.18-0.08-0.23-0.11c-0.04-0.03-0.21-0.11-0.21-0.11s0.01-0.23-0.08-0.27
	c0.14-0.08-0.35-0.37-0.44-0.41c-0.08-0.04-0.06-0.01-0.03-0.18c0.03-0.17-0.01-0.13-0.2-0.31c0.25-0.83-0.27-1.55-0.27-1.55
	s0-0.38-0.07-0.94c-0.07-0.56-0.41-1.55-0.48-1.79c-0.07-0.24-0.24-0.49-0.31-0.75c-0.07-0.25-0.13-0.68-0.24-0.96
	c-0.11-0.28-0.49-0.93-0.58-0.99c-0.08-0.06-0.07-0.1-0.18-0.27c-0.11-0.17-0.08-0.27-0.13-0.31c-0.04-0.04,0.09-0.06,0.09-0.06
	s0.11,0.04,0.03-0.04c-0.08-0.08-0.03-0.11,0-0.22c0.03-0.11,0.21-0.06,0.06-0.3c-0.15-0.24-0.22-1.04-0.22-1.04
	s0.41-0.59,0.25-0.86c-0.15-0.27-0.92-0.54-1.03-0.56c-0.11-0.03-0.04-0.11-0.13-0.21c-0.08-0.1-0.1-0.16-0.31-0.23
	c-0.21-0.07-0.35-0.1-0.61-0.15c-0.25-0.06-0.31,0.01-0.41,0c-0.1-0.02-0.21,0-0.39,0.04c-0.18,0.04-0.51,0.07-0.66,0.17
	c-0.15,0.1-0.11,0.08-0.31,0.18c-0.2,0.1-0.06,0.11-0.14,0.24c-0.08,0.13-0.08,0.06-0.25,0.25c-0.17,0.2-0.23,0.35-0.28,0.56
	c-0.06,0.21-0.03,0.2-0.07,0.38c-0.04,0.18-0.03,0.07-0.1,0.3c-0.07,0.23-0.04,0.18-0.06,0.44c-0.01,0.25,0,0.13,0.01,0.34
	c0.01,0.21,0.01,0.15,0.04,0.3c0.03,0.14-0.01,0.28-0.01,0.55c0,0.27-0.03,0.59-0.03,0.72c0,0.13-0.03,0.08,0.04,0.18
	c0.07,0.1,0.06,0.13,0.07,0.2c0.01,0.07-0.08,0.13-0.11,0.24c-0.03,0.11,0,0.13-0.17,0.1c-0.17-0.03-0.38,0.17-0.38,0.17
	s-0.3,0.08-0.34,0.31c-0.04,0.23-0.65,0.52-0.87,1c-0.23,0.48-0.63,1.37-1.16,2.48c-0.52,1.11-0.35,1.47-0.21,1.69
	c0.14,0.23,0.11,0.93,0.1,0.89c-0.41-1.2-1.58-1.42-2.14-1.17c-0.55,0.08-1.49,0.21-1.21,0.99c0.28,0.78,0.31,1.72,0.65,2.75
	c0.34,1.03,0.59,3.48,0.69,4.03c0.1,0.55,0.25,1.1,0.39,1.34c0.14,0.24,0.61,0.76,0.92,1.02c-0.03,0.32,0.2,0.51,0.2,0.51
	s-0.01,0.21-0.04,0.3c-0.03,0.08,0.21,0.13,0.39,0.11c0.18-0.01,1.41,0.01,1.41,0.01L11.52,24c0,0-1.68-0.15-1.96-0.17
	c-0.28-0.01-0.42,0.03-0.62,0.2c-0.2,0.17-0.62,0.94-0.68,1.34c-0.06,0.39,0.03,0.55,0.14,0.66c-0.3,0.37-0.21,0.92,0.17,1.21
	c0.38,0.3,1.28,0.86,1.28,0.86s-0.21,0.28-0.56,0.64c-1.17,0-1.83,1.01-1.83,2.16c0,0.59,0.72,1.75,1.97,1.75
	c1.9,0,2.17-1.55,2.17-1.93s-0.14-0.73-0.14-0.73l0.68-0.85c0,0,0.11,1.13,0.13,1.35c0.01,0.23,0.13,0.8,0.54,0.94
	c0.41,0.14,0.51,0.24,1.06,0.39c0.55,0.16,4.41,0.62,5.24,0.47c0.83-0.16,1.23-0.45,1.37-0.72c0.14-0.27,0.03-0.17,0.2-0.31
	c0.17-0.14,0.18-0.56,0.18-0.56s0.24,0.06,0.37,0.17c0.13,0.11,0.39,0,0.49-0.04c0.1-0.04,0.18-0.13,0.32-0.11
	c0.14,0.01,0.41-0.01,0.49-0.16c0.08-0.14-0.03-0.27,0.07-0.32c0.1-0.06,2.85-0.59,2.85-0.59s0.93,1.03,2.09,1.03
	c1.68,0,2.68-1.18,2.68-2.48C30.21,26.14,28,25.64,28,25.64z M16.05,8.2c-0.04-0.19-0.32-0.5-0.32-0.5s0.01-0.06-0.02-0.11
	c0.13,0.04,0.26,0.01,0.34-0.01c0.07,0.54,0.58,1,0.58,1C16.46,8.44,16.2,8.3,16.05,8.2z M26.62,24.09c0,0-0.1-0.13-0.51-0.11
	c-0.41,0.02-0.72,0.52-0.76,0.51c-0.04-0.01-0.39,0.08-0.72,0.68c-0.45-0.51-1.06-0.47-1.17-0.49c-0.11-0.03-0.15-0.21-0.35-0.42
	c-0.2-0.21,0.07-0.25-0.2-0.54c-0.27-0.28,0.01-0.9,0-1.61c-0.01-0.7-0.28-1.82-0.32-2.21c-0.04-0.39,0.21-0.13,0.03-0.73
	c-0.51-1.69-1.73-1.62-2.55-1.69c-0.07-1.21-0.51-1.78-0.51-1.78s0.24,0.01,0.42-0.28c0.31-0.13,0.52-0.34,0.68-0.68
	c-0.16,0.38,0.18,0.59,0.51,0.55c0.32-0.04,0.44-0.28,0.65-0.44c0.21-0.15,0.55-0.69,0.59-0.69c0.04,0,0.14-0.22,0.27-0.17
	c0.13,0.06,0.28-0.03,0.32,0.07c0.04,0.1,0.39,0.78,0.45,0.8c0.06,0.03-0.07,0.1-0.18,0.32c-0.11,0.23-0.49,0.65-0.41,0.86
	c0.09,0.21,0.49,1.17,0.62,1.44c0.13,0.27,1.17,2.78,1.25,2.92c0.08,0.14,0.27,0.18,0.56,0.06c0.23,0.2,0.45,0.21,0.54,0.27
	c0.08,0.06,0.22,0.02,0.22,0.02s0.8,2.14,0.95,2.13c0.14-0.01,0.25-0.11,0.25-0.11l0.27,0.75C26.86,23.66,26.62,24.09,26.62,24.09z"
	/>
</svg>
